<svg width="32" height="32" viewBox="0 0 32 32" fill="none" xmlns="http://www.w3.org/2000/svg">
<path d="M24.0999 2.07227L29.6639 7.87227V29.9283H8.87891V30.0003H29.7349V7.94527L24.0999 2.07227Z" fill="#909090"/>
<path d="M24.0316 2H8.80859V29.928H29.6646V7.873L24.0316 2Z" fill="#F4F4F4"/>
<path d="M8.65562 3.5H2.26562V10.327H22.3656V3.5H8.65562Z" fill="#7A7B7C"/>
<path d="M22.4715 10.2109H2.39453V3.37891H22.4715V10.2109Z" fill="#DD2025"/>
<path d="M9.05309 4.5332H9.02309H8.81609H7.74609V9.3332H8.77409V7.7142L9.00109 7.7272C9.22166 7.72341 9.44016 7.6839 9.64809 7.6102C9.8304 7.5475 9.9981 7.44851 10.1411 7.3192C10.2866 7.19602 10.4013 7.04056 10.4761 6.8652C10.5764 6.5737 10.6122 6.2639 10.5811 5.9572C10.5748 5.73811 10.5364 5.52113 10.4671 5.3132C10.404 5.16311 10.3103 5.0278 10.192 4.9159C10.0737 4.80399 9.93345 4.71793 9.78009 4.6632C9.6475 4.6152 9.51051 4.58037 9.37109 4.5592C9.26552 4.54291 9.15891 4.53422 9.05209 4.5332M8.86309 6.8272H8.77409V5.3472H8.96709C9.05227 5.34106 9.13775 5.35414 9.21719 5.38547C9.29664 5.41679 9.36803 5.46558 9.42609 5.5282C9.54641 5.68922 9.61069 5.88521 9.60909 6.0862C9.60909 6.3322 9.60909 6.5552 9.38709 6.7122C9.22716 6.80017 9.04512 6.84077 8.86309 6.8272Z" fill="#464648"/>
<path d="M12.5317 4.52167C12.4207 4.52167 12.3127 4.52967 12.2367 4.53267L11.9987 4.53867H11.2188V9.33867H12.1367C12.4876 9.34829 12.8369 9.28883 13.1648 9.16367C13.4287 9.05899 13.6624 8.89025 13.8447 8.67267C14.0221 8.45313 14.1494 8.19751 14.2177 7.92367C14.2963 7.61354 14.3346 7.29459 14.3317 6.97467C14.3511 6.59683 14.3219 6.21806 14.2448 5.84767C14.1715 5.57504 14.0344 5.32377 13.8447 5.11467C13.6959 4.94584 13.5138 4.80964 13.3097 4.71467C13.1345 4.63359 12.9502 4.57383 12.7607 4.53667C12.6854 4.52423 12.6091 4.51854 12.5328 4.51967M12.3507 8.45667H12.2507V5.39267H12.2638C12.4699 5.36895 12.6785 5.40615 12.8637 5.49967C12.9994 5.608 13.11 5.74447 13.1877 5.89967C13.2717 6.06301 13.3201 6.24228 13.3298 6.42567C13.3388 6.64567 13.3298 6.82567 13.3298 6.97467C13.3338 7.14631 13.3228 7.31797 13.2968 7.48767C13.2659 7.6619 13.209 7.83047 13.1277 7.98767C13.0358 8.13383 12.9117 8.25698 12.7647 8.34767C12.6414 8.42747 12.4953 8.4647 12.3488 8.45367" fill="#464648"/>
<path d="M17.43 4.53711H15V9.33711H16.028V7.43311H17.328V6.54111H16.028V5.42911H17.428V4.53711" fill="#464648"/>
<path d="M21.7807 20.2555C21.7807 20.2555 24.9687 19.6775 24.9687 20.7665C24.9687 21.8555 22.9937 21.4125 21.7807 20.2555ZM19.4237 20.3385C18.9172 20.4504 18.4236 20.6143 17.9507 20.8275L18.3507 19.9275C18.7507 19.0275 19.1657 17.8005 19.1657 17.8005C19.643 18.6038 20.1984 19.3581 20.8237 20.0525C20.3521 20.1228 19.8847 20.219 19.4237 20.3405V20.3385ZM18.1617 13.8385C18.1617 12.8895 18.4687 12.6305 18.7077 12.6305C18.9467 12.6305 19.2157 12.7455 19.2247 13.5695C19.1468 14.3981 18.9733 15.2148 18.7077 16.0035C18.3438 15.3413 18.1555 14.597 18.1607 13.8415L18.1617 13.8385ZM13.5127 24.3545C12.5347 23.7695 15.5637 21.9685 16.1127 21.9105C16.1097 21.9115 14.5367 24.9665 13.5127 24.3545ZM25.8997 20.8955C25.8897 20.7955 25.7997 19.6885 23.8297 19.7355C23.0086 19.7223 22.1878 19.7801 21.3767 19.9085C20.591 19.1169 19.9143 18.224 19.3647 17.2535C19.711 16.2529 19.9205 15.2102 19.9877 14.1535C19.9587 12.9535 19.6717 12.2655 18.7517 12.2755C17.8317 12.2855 17.6977 13.0905 17.8187 14.2885C17.9372 15.0935 18.1608 15.8796 18.4837 16.6265C18.4837 16.6265 18.0587 17.9495 17.4967 19.2655C16.9347 20.5815 16.5507 21.2715 16.5507 21.2715C15.5734 21.5896 14.6534 22.0623 13.8257 22.6715C13.0017 23.4385 12.6667 24.0275 13.1007 24.6165C13.4747 25.1245 14.7837 25.2395 15.9537 23.7065C16.5754 22.9147 17.1433 22.0822 17.6537 21.2145C17.6537 21.2145 19.4377 20.7255 19.9927 20.5915C20.5477 20.4575 21.2187 20.3515 21.2187 20.3515C21.2187 20.3515 22.8477 21.9905 24.4187 21.9325C25.9897 21.8745 25.9137 20.9935 25.9037 20.8975" fill="#DD2025"/>
<path d="M23.9531 2.07617V7.94917H29.5861L23.9531 2.07617Z" fill="#909090"/>
<path d="M24.0312 2V7.873H29.6642L24.0312 2Z" fill="#F4F4F4"/>
<path d="M8.97497 4.45703H8.94497H8.73797H7.66797V9.25703H8.69997V7.63903L8.92797 7.65203C9.14854 7.64824 9.36704 7.60872 9.57497 7.53503C9.75726 7.4723 9.92496 7.37331 10.068 7.24403C10.2124 7.12052 10.326 6.96508 10.4 6.79003C10.5003 6.49853 10.5361 6.18873 10.505 5.88203C10.4987 5.66294 10.4603 5.44595 10.391 5.23803C10.3278 5.08794 10.2342 4.95263 10.1159 4.84072C9.9976 4.72882 9.85732 4.64276 9.70397 4.58803C9.57077 4.53956 9.4331 4.50439 9.29297 4.48303C9.18739 4.46674 9.08079 4.45805 8.97397 4.45703M8.78497 6.75103H8.69597V5.27103H8.88997C8.97515 5.26489 9.06062 5.27797 9.14007 5.30929C9.21952 5.34062 9.29091 5.3894 9.34897 5.45203C9.46929 5.61305 9.53356 5.80903 9.53197 6.01003C9.53197 6.25603 9.53197 6.47903 9.30997 6.63603C9.15004 6.724 8.96799 6.7636 8.78597 6.75003" fill="white"/>
<path d="M12.4545 4.44355C12.3435 4.44355 12.2355 4.45155 12.1595 4.45455L11.9245 4.46055H11.1445V9.26055H12.0625C12.4134 9.27016 12.7626 9.2107 13.0905 9.08555C13.3544 8.98087 13.5881 8.81213 13.7705 8.59455C13.9479 8.375 14.0752 8.11939 14.1435 7.84555C14.2221 7.53542 14.2604 7.21646 14.2575 6.89655C14.2769 6.51871 14.2477 6.13994 14.1705 5.76955C14.0973 5.49691 13.9602 5.24564 13.7705 5.03655C13.6217 4.86771 13.4396 4.73152 13.2355 4.63655C13.0603 4.55546 12.876 4.4957 12.6865 4.45855C12.6112 4.4461 12.5349 4.44041 12.4585 4.44155M12.2765 8.37855H12.1765V5.31455H12.1895C12.3957 5.29083 12.6043 5.32803 12.7895 5.42155C12.9252 5.52987 13.0357 5.66635 13.1135 5.82155C13.1975 5.98488 13.2459 6.16415 13.2555 6.34755C13.2645 6.56755 13.2555 6.74755 13.2555 6.89655C13.2596 7.06818 13.2486 7.23985 13.2225 7.40955C13.1917 7.58378 13.1347 7.75235 13.0535 7.90955C12.9616 8.0557 12.8374 8.17886 12.6905 8.26955C12.5672 8.34935 12.4211 8.38657 12.2745 8.37555" fill="white"/>
<path d="M17.3519 4.46094H14.9219V9.26094H15.9499V7.35694H17.2499V6.46494H15.9499V5.35294H17.3499V4.46094" fill="white"/>
</svg>
