<svg width="29" height="30" viewBox="0 0 29 30" fill="none" xmlns="http://www.w3.org/2000/svg">
<path fill-rule="evenodd" clip-rule="evenodd" d="M26.0828 4.49134H16.9025V2.32812L1.8125 4.65719V25.0723L16.9025 27.6714V24.4651H26.0828C26.3608 24.4792 26.6331 24.3826 26.8401 24.1965C27.0472 24.0103 27.172 23.7498 27.1875 23.4718V5.48369C27.1718 5.20589 27.0468 4.94559 26.8398 4.75965C26.6328 4.57371 26.3607 4.47725 26.0828 4.49134ZM26.2278 23.6368H16.8717L16.8563 21.9249H19.1101V19.9311H16.839L16.8282 18.753H19.1101V16.7593H16.8109L16.8001 15.5811H19.1101V13.5874H16.7928V12.4093H19.1101V10.4155H16.7928V9.23738H19.1101V7.24363H16.7928V5.43113H26.2278V23.6368Z" fill="#20744A"/>
<path d="M24.2966 7.24219H20.3789V9.23594H24.2966V7.24219Z" fill="#20744A"/>
<path d="M24.2966 10.4141H20.3789V12.4078H24.2966V10.4141Z" fill="#20744A"/>
<path d="M24.2966 13.5879H20.3789V15.5816H24.2966V13.5879Z" fill="#20744A"/>
<path d="M24.2966 16.7598H20.3789V18.7535H24.2966V16.7598Z" fill="#20744A"/>
<path d="M24.2966 19.9336H20.3789V21.9273H24.2966V19.9336Z" fill="#20744A"/>
<path fill-rule="evenodd" clip-rule="evenodd" d="M5.75269 10.1721L7.6975 10.0607L8.92003 13.422L10.3646 9.92202L12.3094 9.81055L9.94772 14.5829L12.3094 19.367L10.2531 19.2283L8.86475 15.5815L7.47547 19.0896L5.58594 18.9229L7.78087 14.697L5.75269 10.1721Z" fill="white"/>
</svg>
