<svg width="32" height="32" viewBox="0 0 32 32" fill="none" xmlns="http://www.w3.org/2000/svg">
<path d="M18.536 2.32327V4.86827C21.936 4.88727 25.656 4.83327 29.057 4.88727C29.177 4.86641 29.3001 4.87381 29.4167 4.90889C29.5333 4.94397 29.6401 5.00575 29.7287 5.08933C29.8172 5.17292 29.885 5.276 29.9267 5.39038C29.9685 5.50477 29.9829 5.62731 29.969 5.74827C30.023 12.0143 29.956 18.6383 30.001 24.9053C29.981 25.3053 30.01 26.0233 29.948 26.4223C29.869 26.9313 29.642 27.0293 29.131 27.0983C28.845 27.1373 28.367 27.1323 28.086 27.1453C25.294 27.1313 22.504 27.1343 19.712 27.1353H18.537V29.6823L2 27.1333C2 19.7113 2 12.2913 2 4.87327L18.536 2.32327Z" fill="#283C82"/>
<path d="M18.5352 5.82227H29.0352V26.1803H18.5352V23.6353H26.8052V22.3633H18.5352V20.7733H26.8052V19.5003H18.5352V17.9103H26.8052V16.6373H18.5352V15.0473H26.8052V13.7743H18.5352V12.1843H26.8052V10.9113H18.5352V9.32127H26.8052V8.04827H18.5352V5.82227Z" fill="white"/>
<path d="M8.57456 11.4424C9.17456 11.4074 9.78356 11.3824 10.3876 11.3504C10.8106 13.4974 11.2436 15.6414 11.7016 17.7794C12.0606 15.5714 12.4586 13.3704 12.8436 11.1664C13.4796 11.1444 14.1156 11.1094 14.7486 11.0664C14.0296 14.1484 13.3996 17.2564 12.6146 20.3204C12.0836 20.5974 11.2886 20.3074 10.6586 20.3524C10.2356 18.2464 9.74256 16.1524 9.36356 14.0384C8.99156 16.0994 8.50756 18.1324 8.08156 20.1744C7.4709 20.1424 6.8579 20.1054 6.24256 20.0634C5.71456 17.2634 5.09456 14.4844 4.60156 11.6784C5.14556 11.6534 5.69256 11.6304 6.23656 11.6114C6.56456 13.6374 6.93656 15.6544 7.22256 17.6834C7.67056 15.6034 8.12956 13.5224 8.57456 11.4424Z" fill="white"/>
</svg>
